# xmcd
#
# Track frame offsets: 
#        150
#        14203
#        31162
#        44932
#        64706
#        80249
#        92833
#        106611
#        120845
#        133003
#        149208
#        151066
#        168254
#        187226
#        201278
#        214935
#        232839
#        250242
#        270018
#        283818
#
# Disc length: 3971 seconds
#
# Revision: 0
# Processed by: cddbd v1.5.2PL0 Copyright (c) Steve Scherf et al.
# Submitted via: ExactAudioCopyFreeDBPlugin 1.0
#
DISCID=260f8114
DTITLE=Gunter Gabriel - ich bin Gunter Gabriel CD1
DYEAR=2016
DGENRE=Country
TTITLE0=Detroit City
TTITLE1=Freiheit ist ein Abenteuer
TTITLE2=Wär' ich doch nur ein Rolling Stone
TTITLE3=Er ist ein Kerl
TTITLE4=Ich werd' gesucht
TTITLE5=Das ist meine Art zu leben
TTITLE6=Hey Boss, ich brauch' mehr Geld
TTITLE7=Jeder Mann braucht eine Frau
TTITLE8=Draußen vor der Tür
TTITLE9=Mach das Licht aus
TTITLE10=20-Sekunden-Lied
TTITLE11=Hey, Yvonne
TTITLE12=Intercity Linie Nr. 4
TTITLE13=Worte, die ich leider nie gesagt
TTITLE14=Heut' ist nicht mein Tag
TTITLE15=Komm' unter meine Decke
TTITLE16=Mit dem Hammer in der Hand
TTITLE17=Ein Stückchen pro Tag
TTITLE18=Papa trinkt Bier
TTITLE19=Meine Helden
EXTD=
EXTT0=
EXTT1=
EXTT2=
EXTT3=
EXTT4=
EXTT5=
EXTT6=
EXTT7=
EXTT8=
EXTT9=
EXTT10=
EXTT11=
EXTT12=
EXTT13=
EXTT14=
EXTT15=
EXTT16=
EXTT17=
EXTT18=
EXTT19=
PLAYORDER=
